<?xml version="1.0" encoding="UTF-8" standalone="no"?>
<!-- Created with Inkscape (http://www.inkscape.org/) -->

<svg
   xmlns:dc="http://purl.org/dc/elements/1.1/"
   xmlns:cc="http://creativecommons.org/ns#"
   xmlns:rdf="http://www.w3.org/1999/02/22-rdf-syntax-ns#"
   xmlns:svg="http://www.w3.org/2000/svg"
   xmlns="http://www.w3.org/2000/svg"
   xmlns:sodipodi="http://sodipodi.sourceforge.net/DTD/sodipodi-0.dtd"
   xmlns:inkscape="http://www.inkscape.org/namespaces/inkscape"
   width="128"
   height="128"
   viewBox="0 0 33.866666 33.866666"
   version="1.1"
   id="svg1255"
   sodipodi:docname="tfs.svg"
   inkscape:version="0.92.4 (5da689c313, 2019-01-14)">
  <defs
     id="defs1249" />
  <sodipodi:namedview
     id="base"
     pagecolor="#ffffff"
     bordercolor="#666666"
     borderopacity="1.0"
     inkscape:pageopacity="0.0"
     inkscape:pageshadow="2"
     inkscape:zoom="0.35"
     inkscape:cx="479.06813"
     inkscape:cy="501.57309"
     inkscape:document-units="mm"
     inkscape:current-layer="layer1"
     showgrid="false"
     units="px"
     inkscape:window-width="1284"
     inkscape:window-height="871"
     inkscape:window-x="2019"
     inkscape:window-y="966"
     inkscape:window-maximized="0" />
  <metadata
     id="metadata1252">
    <rdf:RDF>
      <cc:Work
         rdf:about="">
        <dc:format>image/svg+xml</dc:format>
        <dc:type
           rdf:resource="http://purl.org/dc/dcmitype/StillImage" />
        <dc:title></dc:title>
      </cc:Work>
    </rdf:RDF>
  </metadata>
  <g
     inkscape:label="Layer 1"
     inkscape:groupmode="layer"
     id="layer1"
     transform="translate(0,-263.13334)">
    <g
       aria-label="TFS"
       transform="matrix(0.26458333,0,0,0.26458333,0,267.29107)"
       style="font-style:normal;font-variant:normal;font-weight:normal;font-stretch:normal;font-size:40px;line-height:1.25;font-family:'Segoe UI';-inkscape-font-specification:'Segoe UI';letter-spacing:0px;word-spacing:0px;fill:#000000;fill-opacity:1;stroke:none"
       id="flowRoot4960">
      <path
         d="M 44.630535,21.374168 H 29.536785 V 68.11375 h -6.125 V 21.374168 H 8.3544941 V 15.832502 H 44.630535 Z"
         style="font-size:74.66666412px;text-align:center;text-anchor:middle"
         id="path4975" />
      <path
         d="M 79.338867,21.374168 H 58.922201 v 18.083333 h 18.885416 v 5.505208 H 58.922201 V 68.11375 h -6.125 V 15.832502 h 26.541666 z"
         style="font-size:74.66666412px;text-align:center;text-anchor:middle"
         id="path4977" />
      <path
         d="m 86.812825,65.999167 v -7.21875 q 1.239583,1.09375 2.953125,1.96875 1.75,0.875 3.645833,1.494791 1.932291,0.583334 3.864583,0.911459 1.932292,0.328125 3.572914,0.328125 5.65104,0 8.42188,-2.078125 2.80729,-2.114584 2.80729,-6.052083 0,-2.114584 -0.94792,-3.682292 -0.91146,-1.567708 -2.55208,-2.84375 -1.64063,-1.3125 -3.90104,-2.479166 -2.22396,-1.203125 -4.812502,-2.515625 -2.734375,-1.385417 -5.104167,-2.807292 -2.369791,-1.421875 -4.119791,-3.135417 -1.75,-1.713541 -2.770834,-3.864583 -0.984375,-2.1875 -0.984375,-5.104166 0,-3.572917 1.567709,-6.197917 1.567708,-2.661458 4.119791,-4.375 2.552084,-1.713541 5.796875,-2.552083 3.281254,-0.838541 6.671874,-0.838541 7.72917,0 11.26563,1.859375 v 6.890624 q -4.63021,-3.208333 -11.88542,-3.208333 -2.00521,0 -4.01042,0.4375 -2.005206,0.401042 -3.572914,1.348958 -1.567708,0.947917 -2.552083,2.442709 -0.984375,1.494791 -0.984375,3.645833 0,2.005208 0.729167,3.463541 0.765625,1.458334 2.223958,2.661459 1.458333,1.203125 3.536458,2.333333 2.114579,1.130208 4.848959,2.479166 2.80729,1.385417 5.32292,2.916667 2.51562,1.53125 4.41145,3.390625 1.89584,1.859375 2.98959,4.119791 1.13021,2.260417 1.13021,5.177084 0,3.864583 -1.53125,6.562499 -1.4948,2.661459 -4.08334,4.338542 -2.55208,1.677083 -5.90625,2.40625 -3.35416,0.765625 -7.072914,0.765625 -1.239583,0 -3.0625,-0.21875 -1.822916,-0.182292 -3.71875,-0.583334 -1.895833,-0.364583 -3.609375,-0.911458 -1.677083,-0.583333 -2.697916,-1.276041 z"
         style="font-size:74.66666412px;text-align:center;text-anchor:middle"
         id="path4979" />
    </g>
  </g>
</svg>
