<?xml version="1.0" encoding="UTF-8" standalone="no"?>
<svg
   xmlns:dc="http://purl.org/dc/elements/1.1/"
   xmlns:cc="http://creativecommons.org/ns#"
   xmlns:rdf="http://www.w3.org/1999/02/22-rdf-syntax-ns#"
   xmlns:svg="http://www.w3.org/2000/svg"
   xmlns="http://www.w3.org/2000/svg"
   xmlns:sodipodi="http://sodipodi.sourceforge.net/DTD/sodipodi-0.dtd"
   xmlns:inkscape="http://www.inkscape.org/namespaces/inkscape"
   width="16"
   height="16"
   viewBox="0 0 16 16"
   version="1.1"
   id="svg6"
   sodipodi:docname="add.svg"
   inkscape:version="0.92.4 (5da689c313, 2019-01-14)">
  <metadata
     id="metadata12">
    <rdf:RDF>
      <cc:Work
         rdf:about="">
        <dc:format>image/svg+xml</dc:format>
        <dc:type
           rdf:resource="http://purl.org/dc/dcmitype/StillImage" />
        <dc:title></dc:title>
      </cc:Work>
    </rdf:RDF>
  </metadata>
  <defs
     id="defs10" />
  <sodipodi:namedview
     pagecolor="#ffffff"
     bordercolor="#666666"
     borderopacity="1"
     objecttolerance="10"
     gridtolerance="10"
     guidetolerance="10"
     inkscape:pageopacity="0"
     inkscape:pageshadow="2"
     inkscape:window-width="1902"
     inkscape:window-height="1227"
     id="namedview8"
     showgrid="false"
     inkscape:zoom="9.8333333"
     inkscape:cx="-4.7288136"
     inkscape:cy="12"
     inkscape:window-x="0"
     inkscape:window-y="0"
     inkscape:window-maximized="0"
     inkscape:current-layer="svg6" />
  <path
     d="M 0,-8 H 24 V 16 H 0 Z"
     id="path2"
     inkscape:connector-curvature="0"
     style="fill:none" />
  <path
     d="M 8.6932203,4.8728814 H 7.4762712 V 7.3067797 H 5.0423729 V 8.5237288 H 7.4762712 V 10.957627 H 8.6932203 V 8.5237288 H 11.127119 V 7.3067797 H 8.6932203 Z M 8.0847458,1.8305085 C 4.7259661,1.8305085 2,4.5564746 2,7.9152542 2,11.274034 4.7259661,14 8.0847458,14 c 3.3587792,0 6.0847462,-2.725966 6.0847462,-6.0847458 0,-3.3587796 -2.725967,-6.0847457 -6.0847462,-6.0847457 z m 0,10.9525425 c -2.6833729,0 -4.8677966,-2.184424 -4.8677966,-4.8677968 0,-2.6833728 2.1844237,-4.8677966 4.8677966,-4.8677966 2.6833732,0 4.8677962,2.1844238 4.8677962,4.8677966 0,2.6833728 -2.184423,4.8677968 -4.8677962,4.8677968 z"
     id="path4"
     style="fill:#e6e6e6;stroke-width:0.60847455"
     inkscape:connector-curvature="0" />
</svg>
