<?xml version="1.0" encoding="UTF-8" standalone="no"?>
<svg
   xmlns:dc="http://purl.org/dc/elements/1.1/"
   xmlns:cc="http://creativecommons.org/ns#"
   xmlns:rdf="http://www.w3.org/1999/02/22-rdf-syntax-ns#"
   xmlns:svg="http://www.w3.org/2000/svg"
   xmlns="http://www.w3.org/2000/svg"
   xmlns:sodipodi="http://sodipodi.sourceforge.net/DTD/sodipodi-0.dtd"
   xmlns:inkscape="http://www.inkscape.org/namespaces/inkscape"
   width="16"
   height="16"
   viewBox="0 0 16 16"
   version="1.1"
   id="svg6"
   sodipodi:docname="remove.svg"
   inkscape:version="0.92.4 (5da689c313, 2019-01-14)">
  <metadata
     id="metadata12">
    <rdf:RDF>
      <cc:Work
         rdf:about="">
        <dc:format>image/svg+xml</dc:format>
        <dc:type
           rdf:resource="http://purl.org/dc/dcmitype/StillImage" />
        <dc:title></dc:title>
      </cc:Work>
    </rdf:RDF>
  </metadata>
  <defs
     id="defs10" />
  <sodipodi:namedview
     pagecolor="#ffffff"
     bordercolor="#666666"
     borderopacity="1"
     objecttolerance="10"
     gridtolerance="10"
     guidetolerance="10"
     inkscape:pageopacity="0"
     inkscape:pageshadow="2"
     inkscape:window-width="1475"
     inkscape:window-height="796"
     id="namedview8"
     showgrid="false"
     inkscape:zoom="9.8333333"
     inkscape:cx="-4.7288136"
     inkscape:cy="12"
     inkscape:window-x="1018"
     inkscape:window-y="365"
     inkscape:window-maximized="0"
     inkscape:current-layer="svg6" />
  <path
     d="M 0,-8 H 24 V 16 H 0 Z"
     id="path2"
     inkscape:connector-curvature="0"
     style="fill:none" />
  <path
     d="M 5.0169492,7.3627119 V 8.5694915 H 11.050847 V 7.3627119 Z M 8.0338983,1.9322034 C 4.7031864,1.9322034 2,4.6353898 2,7.9661017 2,11.296814 4.7031864,14 8.0338983,14 11.36461,14 14.067797,11.296814 14.067797,7.9661017 c 0,-3.3307119 -2.703187,-6.0338983 -6.0338987,-6.0338983 z m 0,10.8610166 c -2.6609491,0 -4.8271186,-2.166169 -4.8271186,-4.8271183 0,-2.6609492 2.1661695,-4.8271186 4.8271186,-4.8271186 2.6609487,0 4.8271187,2.1661694 4.8271187,4.8271186 0,2.6609493 -2.16617,4.8271183 -4.8271187,4.8271183 z"
     id="path4"
     style="fill:#e6e6e6;stroke-width:0.60338986"
     inkscape:connector-curvature="0" />
</svg>
